{
    "asset" : {
        "generator" : "Khronos glTF Blender I/O v1.5.17",
        "version" : "2.0"
    },
    "scene" : 0,
    "scenes" : [
        {
            "name" : "Scene",
            "nodes" : [
                0
            ]
        }
    ],
    "nodes" : [
        {
            "mesh" : 0,
            "name" : "Cube.001",
            "rotation" : [
                0.007461239118129015,
                -0.5902913808822632,
                0.03909066319465637,
                0.806208610534668
            ],
            "scale" : [
                1.1934247016906738,
                8.108255386352539,
                1.1934245824813843
            ]
        }
    ],
    "materials" : [
        {
            "doubleSided" : true,
            "name" : "TreeBrown",
            "pbrMetallicRoughness" : {
                "baseColorFactor" : [
                    0.13757675886154175,
                    0.08959073573350906,
                    0.013243058696389198,
                    1
                ],
                "metallicFactor" : 0,
                "roughnessFactor" : 0.5
            }
        },
        {
            "doubleSided" : true,
            "name" : "TreeGreen",
            "pbrMetallicRoughness" : {
                "baseColorFactor" : [
                    0.08431127667427063,
                    1,
                    0,
                    1
                ],
                "metallicFactor" : 0,
                "roughnessFactor" : 0.5
            }
        }
    ],
    "meshes" : [
        {
            "name" : "Cube.016",
            "primitives" : [
                {
                    "attributes" : {
                        "POSITION" : 0,
                        "NORMAL" : 1,
                        "TEXCOORD_0" : 2
                    },
                    "indices" : 3,
                    "material" : 0
                },
                {
                    "attributes" : {
                        "POSITION" : 4,
                        "NORMAL" : 5,
                        "TEXCOORD_0" : 6
                    },
                    "indices" : 7,
                    "material" : 1
                }
            ]
        }
    ],
    "accessors" : [
        {
            "bufferView" : 0,
            "componentType" : 5126,
            "count" : 624,
            "max" : [
                3.2422537803649902,
                2.0582213401794434,
                2.3995420932769775
            ],
            "min" : [
                -2.3073768615722656,
                -0.05611443892121315,
                -2.959862470626831
            ],
            "type" : "VEC3"
        },
        {
            "bufferView" : 1,
            "componentType" : 5126,
            "count" : 624,
            "type" : "VEC3"
        },
        {
            "bufferView" : 2,
            "componentType" : 5126,
            "count" : 624,
            "type" : "VEC2"
        },
        {
            "bufferView" : 3,
            "componentType" : 5123,
            "count" : 936,
            "type" : "SCALAR"
        },
        {
            "bufferView" : 4,
            "componentType" : 5126,
            "count" : 560,
            "max" : [
                8.382475852966309,
                2.2615673542022705,
                7.55438756942749
            ],
            "min" : [
                -9.281039237976074,
                1.408186674118042,
                -9.72052001953125
            ],
            "type" : "VEC3"
        },
        {
            "bufferView" : 5,
            "componentType" : 5126,
            "count" : 560,
            "type" : "VEC3"
        },
        {
            "bufferView" : 6,
            "componentType" : 5126,
            "count" : 560,
            "type" : "VEC2"
        },
        {
            "bufferView" : 7,
            "componentType" : 5123,
            "count" : 840,
            "type" : "SCALAR"
        }
    ],
    "bufferViews" : [
        {
            "buffer" : 0,
            "byteLength" : 7488,
            "byteOffset" : 0
        },
        {
            "buffer" : 0,
            "byteLength" : 7488,
            "byteOffset" : 7488
        },
        {
            "buffer" : 0,
            "byteLength" : 4992,
            "byteOffset" : 14976
        },
        {
            "buffer" : 0,
            "byteLength" : 1872,
            "byteOffset" : 19968
        },
        {
            "buffer" : 0,
            "byteLength" : 6720,
            "byteOffset" : 21840
        },
        {
            "buffer" : 0,
            "byteLength" : 6720,
            "byteOffset" : 28560
        },
        {
            "buffer" : 0,
            "byteLength" : 4480,
            "byteOffset" : 35280
        },
        {
            "buffer" : 0,
            "byteLength" : 1680,
            "byteOffset" : 39760
        }
    ],
    "buffers" : [
        {
            "byteLength" : 41440,
            "uri" : "data:application/octet-stream;base64,"
        }
    ]
}
