{
    "asset" : {
        "generator" : "Khronos glTF Blender I/O v1.5.17",
        "version" : "2.0"
    },
    "scene" : 0,
    "scenes" : [
        {
            "name" : "Scene",
            "nodes" : [
                0
            ]
        }
    ],
    "nodes" : [
        {
            "mesh" : 0,
            "name" : "popcorn"
        }
    ],
    "materials" : [
        {
            "doubleSided" : true,
            "name" : "popcornYellow",
            "pbrMetallicRoughness" : {
                "baseColorFactor" : [
                    0.8000000715255737,
                    0.4644155502319336,
                    0.0260113924741745,
                    1
                ],
                "metallicFactor" : 0,
                "roughnessFactor" : 0.5
            }
        },
        {
            "doubleSided" : true,
            "name" : "popcornBrown",
            "pbrMetallicRoughness" : {
                "baseColorFactor" : [
                    0.24955908954143524,
                    0.1036800742149353,
                    0.008925125002861023,
                    1
                ],
                "metallicFactor" : 0,
                "roughnessFactor" : 0.5
            }
        },
        {
            "doubleSided" : true,
            "name" : "popcornWhite",
            "pbrMetallicRoughness" : {
                "metallicFactor" : 0.3380281627178192
            }
        }
    ],
    "meshes" : [
        {
            "name" : "Icosphere",
            "primitives" : [
                {
                    "attributes" : {
                        "POSITION" : 0,
                        "NORMAL" : 1,
                        "TEXCOORD_0" : 2
                    },
                    "indices" : 3,
                    "material" : 0
                },
                {
                    "attributes" : {
                        "POSITION" : 4,
                        "NORMAL" : 5,
                        "TEXCOORD_0" : 6
                    },
                    "indices" : 7,
                    "material" : 1
                },
                {
                    "attributes" : {
                        "POSITION" : 8,
                        "NORMAL" : 9,
                        "TEXCOORD_0" : 10
                    },
                    "indices" : 11,
                    "material" : 2
                }
            ]
        }
    ],
    "accessors" : [
        {
            "bufferView" : 0,
            "componentType" : 5126,
            "count" : 4227,
            "max" : [
                1.0813946723937988,
                0.9645009636878967,
                1.163984775543213
            ],
            "min" : [
                -1.1769206523895264,
                -1.5094332695007324,
                -0.08410728722810745
            ],
            "type" : "VEC3"
        },
        {
            "bufferView" : 1,
            "componentType" : 5126,
            "count" : 4227,
            "type" : "VEC3"
        },
        {
            "bufferView" : 2,
            "componentType" : 5126,
            "count" : 4227,
            "type" : "VEC2"
        },
        {
            "bufferView" : 3,
            "componentType" : 5123,
            "count" : 5535,
            "type" : "SCALAR"
        },
        {
            "bufferView" : 4,
            "componentType" : 5126,
            "count" : 1449,
            "max" : [
                0.9109607338905334,
                0.533901035785675,
                1.1009089946746826
            ],
            "min" : [
                -0.1809852123260498,
                -0.42697516083717346,
                0.1513163447380066
            ],
            "type" : "VEC3"
        },
        {
            "bufferView" : 5,
            "componentType" : 5126,
            "count" : 1449,
            "type" : "VEC3"
        },
        {
            "bufferView" : 6,
            "componentType" : 5126,
            "count" : 1449,
            "type" : "VEC2"
        },
        {
            "bufferView" : 7,
            "componentType" : 5123,
            "count" : 1953,
            "type" : "SCALAR"
        },
        {
            "bufferView" : 8,
            "componentType" : 5126,
            "count" : 22598,
            "max" : [
                1.4841948747634888,
                1.565916657447815,
                1.1659520864486694
            ],
            "min" : [
                -1.5125938653945923,
                -1.5873914957046509,
                -1.3336225748062134
            ],
            "type" : "VEC3"
        },
        {
            "bufferView" : 9,
            "componentType" : 5126,
            "count" : 22598,
            "type" : "VEC3"
        },
        {
            "bufferView" : 10,
            "componentType" : 5126,
            "count" : 22598,
            "type" : "VEC2"
        },
        {
            "bufferView" : 11,
            "componentType" : 5123,
            "count" : 33858,
            "type" : "SCALAR"
        }
    ],
    "bufferViews" : [
        {
            "buffer" : 0,
            "byteLength" : 50724,
            "byteOffset" : 0
        },
        {
            "buffer" : 0,
            "byteLength" : 50724,
            "byteOffset" : 50724
        },
        {
            "buffer" : 0,
            "byteLength" : 33816,
            "byteOffset" : 101448
        },
        {
            "buffer" : 0,
            "byteLength" : 11070,
            "byteOffset" : 135264
        },
        {
            "buffer" : 0,
            "byteLength" : 17388,
            "byteOffset" : 146336
        },
        {
            "buffer" : 0,
            "byteLength" : 17388,
            "byteOffset" : 163724
        },
        {
            "buffer" : 0,
            "byteLength" : 11592,
            "byteOffset" : 181112
        },
        {
            "buffer" : 0,
            "byteLength" : 3906,
            "byteOffset" : 192704
        },
        {
            "buffer" : 0,
            "byteLength" : 271176,
            "byteOffset" : 196612
        },
        {
            "buffer" : 0,
            "byteLength" : 271176,
            "byteOffset" : 467788
        },
        {
            "buffer" : 0,
            "byteLength" : 180784,
            "byteOffset" : 738964
        },
        {
            "buffer" : 0,
            "byteLength" : 67716,
            "byteOffset" : 919748
        }
    ],
    "buffers" : [
        {
            "byteLength" : 987464,
            "uri" : "data:application/octet-stream;base64,"
        }
    ]
}
