{
    "asset" : {
        "generator" : "Khronos glTF Blender I/O v1.5.17",
        "version" : "2.0"
    },
    "scene" : 0,
    "scenes" : [
        {
            "name" : "Scene",
            "nodes" : [
                0
            ]
        }
    ],
    "nodes" : [
        {
            "mesh" : 0,
            "name" : "star",
            "rotation" : [
                0.7071068286895752,
                0,
                0,
                0.7071068286895752
            ],
            "scale" : [
                1.5114455223083496,
                1.5114455223083496,
                1.5114455223083496
            ],
            "translation" : [
                0,
                0,
                0.023516355082392693
            ]
        }
    ],
    "materials" : [
        {
            "doubleSided" : true,
            "name" : "star_mat",
            "pbrMetallicRoughness" : {
                "baseColorFactor" : [
                    0.7925738096237183,
                    0.8000000715255737,
                    0.0022819016594439745,
                    1
                ],
                "metallicFactor" : 0
            }
        }
    ],
    "meshes" : [
        {
            "name" : "star",
            "primitives" : [
                {
                    "attributes" : {
                        "POSITION" : 0,
                        "NORMAL" : 1,
                        "TEXCOORD_0" : 2
                    },
                    "indices" : 3,
                    "material" : 0
                }
            ]
        }
    ],
    "accessors" : [
        {
            "bufferView" : 0,
            "componentType" : 5126,
            "count" : 12,
            "max" : [
                1.6145000457763672,
                0.5220999717712402,
                1.3981000185012817
            ],
            "min" : [
                -1.591599941253662,
                -0.5965999960899353,
                -1.3981000185012817
            ],
            "type" : "VEC3"
        },
        {
            "bufferView" : 1,
            "componentType" : 5126,
            "count" : 12,
            "type" : "VEC3"
        },
        {
            "bufferView" : 2,
            "componentType" : 5126,
            "count" : 12,
            "type" : "VEC2"
        },
        {
            "bufferView" : 3,
            "componentType" : 5123,
            "count" : 60,
            "type" : "SCALAR"
        }
    ],
    "bufferViews" : [
        {
            "buffer" : 0,
            "byteLength" : 144,
            "byteOffset" : 0
        },
        {
            "buffer" : 0,
            "byteLength" : 144,
            "byteOffset" : 144
        },
        {
            "buffer" : 0,
            "byteLength" : 96,
            "byteOffset" : 288
        },
        {
            "buffer" : 0,
            "byteLength" : 120,
            "byteOffset" : 384
        }
    ],
    "buffers" : [
        {
            "byteLength" : 504,
            "uri" : "data:application/octet-stream;base64,"
        }
    ]
}
